<svg width="27" height="27" viewBox="0 0 27 27" fill="none" xmlns="http://www.w3.org/2000/svg">
<path fill-rule="evenodd" clip-rule="evenodd" d="M7.50492 1.67268C7.25319 1.42407 7.03212 1.21594 6.83403 1.06037C6.64228 0.909788 6.3885 0.739802 6.07008 0.668007C5.71096 0.587035 5.41269 0.660978 5.20895 0.73498C5.11743 0.768221 5.02991 0.807294 4.96891 0.834592C4.95951 0.838797 4.95037 0.842894 4.94143 0.846902C4.88447 0.872433 4.83561 0.894333 4.77964 0.917587L4.77964 0.917578L4.77555 0.919297C4.19625 1.16302 3.64048 1.45928 3.11522 1.80437L3.11521 1.80435L3.11094 1.80719C2.09907 2.4794 1.42142 3.11742 0.954254 4.11563C0.392545 5.31585 0.402068 7.48902 2.32282 10.9781C4.2298 14.4422 5.59286 16.247 8.36246 19.0086C11.1408 21.7791 13.2959 23.2806 16.3985 25.0206L16.399 25.0209C18.3394 26.1075 19.767 26.5948 20.8699 26.7323C22.0193 26.8756 22.7623 26.6318 23.2823 26.3896C24.2809 25.9245 24.9219 25.2537 25.5978 24.2382L25.6001 24.2349C25.9463 23.7102 26.2434 23.1547 26.4877 22.5755L26.4889 22.5725C26.5122 22.517 26.534 22.4685 26.5595 22.412C26.5636 22.4029 26.5678 22.3936 26.5721 22.384C26.5995 22.3232 26.6387 22.2357 26.6722 22.1441C26.7466 21.94 26.8209 21.6411 26.7394 21.2813C26.6672 20.9627 26.4966 20.709 26.3459 20.5177C26.19 20.3197 25.9813 20.0986 25.7319 19.8468L25.7311 19.8459C25.1893 19.3001 24.323 18.6807 23.5067 18.1526C22.6747 17.6143 21.8146 17.1202 21.235 16.8279L21.2346 16.8277L21.2058 16.8132C20.878 16.6481 20.5757 16.4958 20.3119 16.3881C20.0349 16.2751 19.7145 16.1736 19.3552 16.1732C18.6313 16.1724 18.062 16.5954 17.5705 16.9606L17.5536 16.9732L17.5534 16.9733C17.4593 17.0433 17.3694 17.112 17.2879 17.1743L17.2758 17.1836C17.189 17.2499 17.1127 17.3081 17.0393 17.3622C16.8908 17.4715 16.7813 17.5433 16.6874 17.5922C16.5393 17.6692 16.4361 17.691 16.2623 17.6539C15.998 17.5975 15.4278 17.3624 14.6792 16.8962C13.9545 16.4448 13.1333 15.8207 12.3675 15.0575C11.6016 14.294 10.9604 13.4594 10.4923 12.7198C10.0069 11.9528 9.76173 11.3736 9.70677 11.1176C9.67084 10.9502 9.69134 10.8516 9.76925 10.7038C9.81894 10.6095 9.89152 10.4999 10.0022 10.3499C10.0539 10.2799 10.1086 10.208 10.1708 10.1263L10.1823 10.1112C10.2476 10.0255 10.3196 9.93065 10.3933 9.83034L10.3933 9.83029C10.7557 9.33695 11.1489 8.78192 11.1477 8.05935C11.1472 7.71476 11.0586 7.40099 10.9546 7.12046C10.8522 6.84449 10.7069 6.53052 10.5475 6.18781L10.5471 6.18698C10.2634 5.57825 9.75865 4.70668 9.21511 3.8802C8.67803 3.06356 8.04945 2.20859 7.50492 1.67268ZM5.54925 2.76359C5.08396 2.95948 4.63752 3.19744 4.2155 3.47451C3.37178 4.03527 3.01911 4.4219 2.76569 4.96339C2.6066 5.30333 2.27324 6.74087 4.07488 10.0136C5.8903 13.3114 7.13882 14.9641 9.77465 17.5924C12.4016 20.2118 14.4029 21.6083 17.3763 23.2759C19.1943 24.294 20.3667 24.654 21.1173 24.7476C21.8214 24.8354 22.1855 24.6942 22.4379 24.5766C22.9839 24.3223 23.3722 23.972 23.9318 23.1317C24.2096 22.7105 24.4481 22.2646 24.6443 21.7997C24.6641 21.7522 24.6837 21.7074 24.7016 21.6672C24.617 21.5699 24.4932 21.4383 24.3113 21.2545C23.9313 20.8719 23.221 20.3497 22.4204 19.8318C21.6353 19.3239 20.8378 18.8675 20.3345 18.6137C19.9684 18.4293 19.7375 18.3138 19.5561 18.2398C19.4418 18.1932 19.3839 18.179 19.3615 18.1748C19.3495 18.1793 19.3285 18.1882 19.2963 18.2051C19.1844 18.264 19.026 18.3709 18.7465 18.5785C18.686 18.6235 18.62 18.6741 18.5497 18.728C18.2783 18.9361 17.9425 19.1936 17.6107 19.3662C17.1118 19.6259 16.5366 19.7574 15.8451 19.6099C15.2441 19.4817 14.4414 19.1043 13.6219 18.5938C12.7785 18.0685 11.8364 17.3518 10.9556 16.474C10.0751 15.5963 9.34257 14.6429 8.80233 13.7893C8.27933 12.963 7.88149 12.1437 7.75132 11.5374C7.60212 10.8424 7.73861 10.267 8.00006 9.77105C8.16746 9.45352 8.4188 9.12407 8.62118 8.85879C8.67978 8.78198 8.73427 8.71055 8.78143 8.64635C8.97075 8.38859 9.06569 8.24147 9.11639 8.13961C9.1386 8.09499 9.14529 8.07245 9.14702 8.06584C9.14788 8.06257 9.14791 8.06174 9.14779 8.0626C9.14768 8.0635 9.14773 8.06379 9.14772 8.06266C9.14771 8.0569 9.14671 7.99744 9.07943 7.81608C9.01047 7.63019 8.90261 7.39365 8.73415 7.03141C8.50654 6.5433 8.05847 5.7613 7.54409 4.97917C7.02329 4.18727 6.4889 3.47872 6.10156 3.09768L6.10013 3.09626C5.91507 2.91348 5.78294 2.78949 5.68531 2.70505C5.64428 2.7232 5.59816 2.74324 5.54925 2.76359ZM9.58544 9.23689L9.58739 9.23832L9.58544 9.23689C19.3744 18.1709 19.3729 18.1713 19.3702 18.1718C19.3733 18.1709 19.3746 18.1707 19.3745 18.1708" fill="black"/>
</svg>
