<?xml version="1.0" encoding="utf-8"?>
<!-- Generator: Adobe Illustrator 27.0.0, SVG Export Plug-In . SVG Version: 6.00 Build 0)  -->
<svg version="1.1" id="Layer_1" xmlns="http://www.w3.org/2000/svg" xmlns:xlink="http://www.w3.org/1999/xlink" x="0px" y="0px"
	 viewBox="0 0 32 32" style="enable-background:new 0 0 32 32;" xml:space="preserve">
<path d="M16.4,0.1C7.8,0.1,0.9,7,0.9,15.6c0,8.6,6.9,15.5,15.5,15.5c8.6,0,15.5-6.9,15.5-15.5C31.9,7,24.9,0.1,16.4,0.1z M9.4,4
	L8.8,4.8C8.7,5.2,8.7,5.6,8.8,6c0.1,0.3,0.3,0.7,0.6,1c0.4,0.5,1.1,0.7,1.1,1.4c0,0.7-0.1,1.1-0.5,1.6c-0.2,0.2-0.3,0.5-0.5,0.7
	C9.1,11,9.2,10.9,8.8,11c-0.7,0.1-1.3,0.3-2,0.5c-1.1,0.3-1.5-1.9-2-2.8C6,6.8,7.5,5.2,9.4,4z M12.6,28.4c-5.7-1.6-9.7-6.7-9.7-12.8
	c0-1.5,0.3-2.9,0.7-4.3c0,0,0,0.1,0.1,0.1c0.5,1.4,1.4,2.6,2.1,3.9c0.7,1.5,2.4,1.1,3.2,2.3c0.7,1.1,0,2.6,0.5,3.8
	c0.4,0.9,1.3,1.1,1.9,1.7c0.6,0.6,0.6,1.5,0.7,2.3c0.1,1,0.3,1.9,0.5,2.9C12.6,28.3,12.6,28.3,12.6,28.4z M14.1,24.3
	c-0.1-0.1-0.2-0.8-0.2-1c-0.3-0.8-0.8-1.6-1.5-2.1c-0.2-0.2-0.8-0.4-0.9-0.6c-0.1-0.2,0-0.8,0-1.1c0-0.4-0.2-1-0.1-1.4
	c0-0.5-0.2-0.2,0.2-0.3c0.2,0,1,0.1,1.2,0.1c0.4,0.1,0.6,0.3,0.9,0.6c0.8,0.6,1.7,1.1,2.6,1.6c0.7,0.4,0.9,0.9,0.5,1.7
	c-0.4,0.8-1.4,1.3-2,1.9C14.6,23.9,14.3,24.4,14.1,24.3z M16.4,29.1c-0.6,0-1.2-0.1-1.7-0.1c0-0.2,0-0.3,0-0.4
	c0.2-1.1,0.7-2.2,1.5-3c0.7-0.8,1.8-1.4,2.4-2.3c0.6-0.9,0.8-2.1,0.5-3.2c-0.4-1.6-2.5-2.1-3.7-3c-0.7-0.5-1.2-1.3-2.1-1.3
	c-0.4,0-0.7,0.1-1.1,0c-0.4-0.1-0.6-0.3-1-0.2c-0.7,0.1-1.2,0.9-2,0.8c-0.7-0.1-1.5-1-1.7-1.7c-0.2-0.9,0.5-1.2,1.3-1.3
	c0.3,0,0.7-0.1,1,0c0.4,0.2,0.6,0.5,1,0.7c0.7,0.4,0.8-0.2,0.7-0.8c-0.2-0.9-0.3-1.3,0.5-1.9c0.6-0.4,1-0.7,0.9-1.5
	c-0.1-0.5-0.3-0.7-0.1-1.1c0.2-0.3,0.7-0.7,1-0.9c0.8-0.5,3.5-0.5,2.4-2c-0.3-0.4-0.9-1.2-1.5-1.3c-0.7-0.1-1,0.7-1.5,1
	c-0.5,0.4-1.5,0.8-2,0.2c-0.7-0.7,0.4-1,0.7-1.5C12,3.9,11.8,3.4,11.5,3c0.2-0.1,0.5-0.2,0.7-0.3C12.4,3,12.7,3.2,13,3.2
	c0.5,0,0.9-0.2,1.3,0.1c0.5,0.4,0.8,0.8,1.4,0.9C16.3,4.3,16.9,4,17,3.4c0.1-0.4,0-0.8-0.1-1.2c2.6,0.1,5.1,1,7.1,2.4
	c-0.1,0-0.2,0-0.2,0.1c-0.4,0.2-1,0.7-1.1,1.2c-0.1,0.6,0.8,0.6,1.2,0.6c0.6,0,1.2-0.3,1-1c0-0.1-0.1-0.3-0.2-0.4
	c0.3,0.2,0.6,0.5,0.9,0.8c-0.4,0.4-0.8,0.7-1,1.1c-0.2,0.4-0.4,0.5-0.8,0.6c-0.2,0.1-0.5,0.1-0.6,0.2c-0.5,0.4-0.2,1.4,0.3,1.7
	c0.6,0.4,1.5,0.2,2-0.3C25.7,8.7,25.9,8,26.6,8c0.3,0,0.6,0.1,0.8,0.3c0.3,0.3,0.2,0.5,0.3,0.9c0.1,0.5,0.4,0.4,0.7,0.2
	c0.2,0.5,0.5,1,0.6,1.5c-0.3,0.4-0.6,0.6-1.3,0.1c-0.5-0.4-0.8-0.9-1.5-1.1c-0.6-0.1-1.2,0-1.7,0.1c-0.6,0.1-1.4,0.2-1.9,0.6
	c-0.5,0.5-0.7,1.1-1.2,1.6c-1,0.9-1.4,1.9-0.7,3.2c0.6,1.2,1.9,1.9,3.2,1.8c1.3-0.1,2.7-0.9,2.7,1.1c0,0.7,0.1,1.2,0.3,1.8
	c0.2,0.6,0.2,1.2,0.2,1.8c0,0.5,0.1,1,0.2,1.6C24.9,26.9,20.9,29.1,16.4,29.1z M28.7,18.6c-0.1-1.1,0.1-2-0.7-2.9
	c-0.8-0.9-2-1.1-3.2-0.9c-0.6,0.1-2.9,0.5-2-0.9c0.2-0.3,0.5-0.5,0.7-0.7s0.3-0.6,0.6-0.8c0.2-0.2,1.2-0.4,1.5-0.3
	c0.3,0.1,0.6,0.5,0.8,0.7c0.4,0.3,1,0.6,1.5,0.7c0.4,0.1,1.1,0,1.7-0.3c0.1,0.8,0.2,1.6,0.2,2.4c0.1,1.5-0.2,3-0.7,4.3
	C29,19.5,28.8,19,28.7,18.6z"/>
</svg>
