<svg width="34" height="27" viewBox="0 0 34 27" fill="none" xmlns="http://www.w3.org/2000/svg">
<path fill-rule="evenodd" clip-rule="evenodd" d="M4.58459 2.85059C3.52818 2.85059 2.66406 3.7121 2.66406 4.78438V22.3872C2.66406 23.4595 3.52818 24.321 4.58459 24.321H29.117C30.1734 24.321 31.0375 23.4595 31.0375 22.3872V4.78438C31.0375 3.7121 30.1734 2.85059 29.117 2.85059H4.58459ZM0.664062 4.78438C0.664062 2.61609 2.41507 0.850586 4.58459 0.850586H29.117C31.2865 0.850586 33.0375 2.61609 33.0375 4.78438V22.3872C33.0375 24.5555 31.2865 26.321 29.117 26.321H4.58459C2.41507 26.321 0.664062 24.5555 0.664062 22.3872V4.78438ZM5.05365 5.3339C5.41733 4.91826 6.04909 4.87614 6.46473 5.23983L16.8511 14.3279L27.2375 5.23983C27.6531 4.87614 28.2849 4.91826 28.6486 5.3339C29.0123 5.74954 28.9701 6.3813 28.5545 6.74498L17.5096 16.4093C17.1326 16.7392 16.5696 16.7392 16.1926 16.4093L5.14772 6.74498C4.73208 6.3813 4.68996 5.74954 5.05365 5.3339Z" fill="black"/>
</svg>
