<svg width="30" height="23" viewBox="0 0 30 23" fill="none" xmlns="http://www.w3.org/2000/svg">
<path d="M6.85273 22.36C4.87939 22.36 3.27939 21.6667 2.05273 20.28C0.879393 18.84 0.292725 16.9733 0.292725 14.68C0.292725 11.6933 1.17272 8.91999 2.93272 6.35999C4.69272 3.74665 6.87939 1.79999 9.49273 0.519989L9.97272 1.47999C8.85273 2.33332 7.86606 3.42665 7.01273 4.75999C6.15939 6.09332 5.54606 7.74665 5.17273 9.71999L6.85273 10.12C8.71939 10.5467 10.1594 11.3467 11.1727 12.52C12.2394 13.64 12.7727 15 12.7727 16.6C12.7727 18.3067 12.1861 19.6933 11.0127 20.76C9.89273 21.8267 8.50606 22.36 6.85273 22.36ZM23.7327 22.36C21.7594 22.36 20.1594 21.6667 18.9327 20.28C17.7594 18.84 17.1727 16.9733 17.1727 14.68C17.1727 11.6933 18.0527 8.91999 19.8127 6.35999C21.5727 3.74665 23.7594 1.79999 26.3727 0.519989L26.8527 1.47999C25.7327 2.33332 24.7461 3.42665 23.8927 4.75999C23.0394 6.09332 22.4261 7.74665 22.0527 9.71999L23.7327 10.12C25.5994 10.5467 27.0394 11.3467 28.0527 12.52C29.1194 13.64 29.6527 15 29.6527 16.6C29.6527 18.3067 29.0661 19.6933 27.8927 20.76C26.7727 21.8267 25.3861 22.36 23.7327 22.36Z" fill="black"/>
</svg>
