<svg width="24" height="24" viewBox="0 0 24 24" fill="none" xmlns="http://www.w3.org/2000/svg">
<path fill-rule="evenodd" clip-rule="evenodd" d="M10.5049 2.5C5.98305 2.5 2.31738 6.16567 2.31738 10.6875C2.31738 15.2093 5.98305 18.875 10.5049 18.875C15.0267 18.875 18.6924 15.2093 18.6924 10.6875C18.6924 6.16567 15.0267 2.5 10.5049 2.5ZM0.317383 10.6875C0.317383 5.0611 4.87848 0.5 10.5049 0.5C16.1313 0.5 20.6924 5.0611 20.6924 10.6875C20.6924 13.1408 19.8252 15.3916 18.3806 17.15L23.0238 21.7932C23.4143 22.1837 23.4143 22.8168 23.0238 23.2074C22.6332 23.5979 22.0001 23.5979 21.6096 23.2074L16.9663 18.5641C15.2081 20.0082 12.9577 20.875 10.5049 20.875C4.87848 20.875 0.317383 16.3139 0.317383 10.6875Z" fill="#141414"/>
</svg>
